<svg width="24" height="25" viewBox="0 0 24 25" fill="none" xmlns="http://www.w3.org/2000/svg">
<path d="M19.4349 4.22498H4.56494C3.9019 4.22498 3.26602 4.48837 2.79717 4.95721C2.32833 5.42605 2.06494 6.06193 2.06494 6.72498V17.595C2.06494 18.258 2.32833 18.8939 2.79717 19.3627C3.26602 19.8316 3.9019 20.095 4.56494 20.095H19.4349C20.098 20.095 20.7339 19.8316 21.2027 19.3627C21.6715 18.8939 21.9349 18.258 21.9349 17.595V6.72498C21.9349 6.06193 21.6715 5.42605 21.2027 4.95721C20.7339 4.48837 20.098 4.22498 19.4349 4.22498ZM20.9349 14.155H14.5149C13.9845 14.155 13.4758 13.9443 13.1007 13.5692C12.7257 13.1941 12.5149 12.6854 12.5149 12.155C12.5149 11.6245 12.7257 11.1158 13.1007 10.7408C13.4758 10.3657 13.9845 10.155 14.5149 10.155H20.9349V14.155ZM14.5149 9.15498C13.7193 9.15498 12.9562 9.47105 12.3936 10.0337C11.831 10.5963 11.5149 11.3593 11.5149 12.155C11.5149 12.9506 11.831 13.7137 12.3936 14.2763C12.9562 14.8389 13.7193 15.155 14.5149 15.155H20.9349V17.595C20.9349 17.9928 20.7769 18.3743 20.4956 18.6556C20.2143 18.9369 19.8328 19.095 19.4349 19.095H4.56494C4.16712 19.095 3.78559 18.9369 3.50428 18.6556C3.22298 18.3743 3.06494 17.9928 3.06494 17.595V6.72498C3.06494 6.32715 3.22298 5.94562 3.50428 5.66432C3.78559 5.38301 4.16712 5.22498 4.56494 5.22498H19.4349C19.8328 5.22498 20.2143 5.38301 20.4956 5.66432C20.7769 5.94562 20.9349 6.32715 20.9349 6.72498V9.15498H14.5149Z" fill="#11181C"/>
<path d="M14.519 13.156C15.0713 13.156 15.519 12.7083 15.519 12.156C15.519 11.6037 15.0713 11.156 14.519 11.156C13.9668 11.156 13.519 11.6037 13.519 12.156C13.519 12.7083 13.9668 13.156 14.519 13.156Z" fill="#11181C"/>
</svg>
