<svg width="24" height="25" viewBox="0 0 24 25" fill="none" xmlns="http://www.w3.org/2000/svg">
<path d="M17.6001 22.105C17.2249 22.1042 16.864 21.9613 16.5901 21.705L12.3391 17.805C12.2466 17.7192 12.1252 17.6716 11.9991 17.6716C11.873 17.6716 11.7515 17.7192 11.6591 17.805L7.40907 21.705C7.19491 21.9022 6.928 22.0328 6.6409 22.0809C6.3538 22.129 6.0589 22.0925 5.79218 21.9759C5.52545 21.8592 5.29842 21.6675 5.13877 21.4241C4.97912 21.1807 4.89375 20.8961 4.89307 20.605V4.72998C4.89307 4.06694 5.15646 3.43105 5.6253 2.96221C6.09414 2.49337 6.73003 2.22998 7.39307 2.22998H16.6071C17.2701 2.22998 17.906 2.49337 18.3748 2.96221C18.8437 3.43105 19.1071 4.06694 19.1071 4.72998V20.602C19.1094 20.8943 19.0252 21.1807 18.865 21.4252C18.7048 21.6697 18.4759 21.8613 18.2071 21.976C18.0159 22.0606 17.8092 22.1046 17.6001 22.105ZM12.0001 16.67C12.377 16.6691 12.7404 16.8101 13.0181 17.065L17.2691 20.965C17.3405 21.0309 17.4296 21.0745 17.5255 21.0906C17.6214 21.1066 17.7199 21.0944 17.8089 21.0553C17.8979 21.0163 17.9736 20.9521 18.0268 20.8707C18.0799 20.7893 18.1082 20.6942 18.1081 20.597V4.72998C18.1081 4.33216 17.95 3.95062 17.6687 3.66932C17.3874 3.38802 17.0059 3.22998 16.6081 3.22998H7.39307C6.99524 3.22998 6.61371 3.38802 6.33241 3.66932C6.0511 3.95062 5.89307 4.33216 5.89307 4.72998V20.602C5.89298 20.6992 5.92122 20.7943 5.97436 20.8757C6.02749 20.9571 6.1032 21.0213 6.19223 21.0603C6.28125 21.0994 6.37973 21.1116 6.47561 21.0956C6.57149 21.0795 6.66061 21.0359 6.73207 20.97L10.9831 17.06C11.2612 16.8071 11.6242 16.668 12.0001 16.67Z" fill="#11181C"/>
</svg>
