<svg width="24" height="25" viewBox="0 0 24 25" fill="none" xmlns="http://www.w3.org/2000/svg">
<path d="M20.6052 6.14809C20.5562 5.47569 20.2663 4.84354 19.7887 4.36774C19.311 3.89195 18.6778 3.60446 18.0052 3.55809L13.4452 3.23809C13.0469 3.21318 12.6478 3.27243 12.2739 3.41199C11.9001 3.55155 11.5598 3.76828 11.2752 4.04809L3.90021 11.4381C3.37663 11.962 3.08252 12.6724 3.08252 13.4131C3.08252 14.1538 3.37663 14.8642 3.90021 15.3881L8.77021 20.2681C9.03022 20.5281 9.3389 20.7344 9.67863 20.8751C10.0184 21.0159 10.3825 21.0883 10.7502 21.0883C11.1179 21.0883 11.4821 21.0159 11.8218 20.8751C12.1615 20.7344 12.4702 20.5281 12.7302 20.2681L20.1102 12.8781C20.3933 12.5959 20.6123 12.256 20.7521 11.8815C20.8919 11.507 20.9492 11.1068 20.9202 10.7081L20.6052 6.14809ZM12.0152 19.5601C11.6779 19.8959 11.2212 20.0845 10.7452 20.0845C10.2692 20.0845 9.81254 19.8959 9.47521 19.5601L4.60521 14.6901C4.43656 14.5233 4.30266 14.3248 4.21128 14.1059C4.1199 13.8871 4.07285 13.6523 4.07285 13.4151C4.07285 13.1779 4.1199 12.9431 4.21128 12.7242C4.30266 12.5054 4.43656 12.3068 4.60521 12.1401L5.77521 10.9701L13.1952 18.3901L12.0152 19.5601ZM19.3952 12.1801L13.8952 17.6801L6.48521 10.2601L11.9852 4.76009C12.1513 4.59215 12.3491 4.45883 12.5671 4.36786C12.7851 4.27688 13.019 4.23005 13.2552 4.23009C13.2952 4.23009 13.3352 4.24009 13.3752 4.24009L17.9352 4.56009C18.3665 4.59008 18.7726 4.77433 19.0793 5.07914C19.3859 5.38395 19.5726 5.78895 19.6052 6.22009L19.9252 10.7801C19.941 11.0369 19.9024 11.2942 19.8119 11.5351C19.7214 11.776 19.5811 11.9951 19.4002 12.1781L19.3952 12.1801Z" fill="white"/>
<path d="M17.0002 8.02112C17.4763 8.02112 17.8622 7.63519 17.8622 7.15912C17.8622 6.68305 17.4763 6.29712 17.0002 6.29712C16.5241 6.29712 16.1382 6.68305 16.1382 7.15912C16.1382 7.63519 16.5241 8.02112 17.0002 8.02112Z" fill="white"/>
</svg>
