<svg width="24" height="25" viewBox="0 0 24 25" fill="none" xmlns="http://www.w3.org/2000/svg">
<path d="M8.49999 11.16H5.56299C4.89995 11.16 4.26406 10.8966 3.79522 10.4278C3.32638 9.95892 3.06299 9.32304 3.06299 8.66V5.724C3.06299 5.06096 3.32638 4.42507 3.79522 3.95623C4.26406 3.48739 4.89995 3.224 5.56299 3.224H8.49999C9.16303 3.224 9.79891 3.48739 10.2678 3.95623C10.7366 4.42507 11 5.06096 11 5.724V8.66C11 9.32304 10.7366 9.95892 10.2678 10.4278C9.79891 10.8966 9.16303 11.16 8.49999 11.16ZM5.56299 4.224C5.16516 4.224 4.78363 4.38203 4.50233 4.66334C4.22102 4.94464 4.06299 5.32617 4.06299 5.724V8.66C4.06299 9.05782 4.22102 9.43935 4.50233 9.72066C4.78363 10.002 5.16516 10.16 5.56299 10.16H8.49999C8.89781 10.16 9.27934 10.002 9.56065 9.72066C9.84195 9.43935 9.99999 9.05782 9.99999 8.66V5.724C9.99999 5.32617 9.84195 4.94464 9.56065 4.66334C9.27934 4.38203 8.89781 4.224 8.49999 4.224H5.56299Z" fill="#11181C"/>
<path d="M18.436 11.16H15.5C14.837 11.16 14.2011 10.8966 13.7322 10.4278C13.2634 9.95892 13 9.32304 13 8.66V5.724C13 5.06096 13.2634 4.42507 13.7322 3.95623C14.2011 3.48739 14.837 3.224 15.5 3.224H18.434C18.7623 3.224 19.0874 3.28866 19.3907 3.4143C19.694 3.53994 19.9696 3.72409 20.2018 3.95623C20.4339 4.18838 20.6181 4.46398 20.7437 4.76729C20.8693 5.0706 20.934 5.39569 20.934 5.724V8.66C20.934 9.32269 20.6709 9.95828 20.2025 10.4271C19.7341 10.8958 19.0987 11.1595 18.436 11.16ZM15.5 4.224C15.1022 4.224 14.7206 4.38203 14.4393 4.66334C14.158 4.94464 14 5.32617 14 5.724V8.66C14 9.05782 14.158 9.43935 14.4393 9.72066C14.7206 10.002 15.1022 10.16 15.5 10.16H18.434C18.8318 10.16 19.2134 10.002 19.4947 9.72066C19.776 9.43935 19.934 9.05782 19.934 8.66V5.724C19.934 5.32617 19.776 4.94464 19.4947 4.66334C19.2134 4.38203 18.8318 4.224 18.434 4.224H15.5Z" fill="#11181C"/>
<path d="M8.49996 21.096H5.56397C4.90092 21.096 4.26504 20.8326 3.7962 20.3638C3.32736 19.895 3.06396 19.2591 3.06396 18.596V15.66C3.06396 14.997 3.32736 14.3611 3.7962 13.8923C4.26504 13.4234 4.90092 13.16 5.56397 13.16H8.49996C9.16301 13.16 9.79889 13.4234 10.2677 13.8923C10.7366 14.3611 11 14.997 11 15.66V18.596C11 19.2591 10.7366 19.895 10.2677 20.3638C9.79889 20.8326 9.16301 21.096 8.49996 21.096ZM5.56397 14.16C5.16614 14.16 4.78461 14.3181 4.5033 14.5994C4.222 14.8807 4.06397 15.2622 4.06397 15.66V18.596C4.06397 18.9939 4.222 19.3754 4.5033 19.6567C4.78461 19.938 5.16614 20.096 5.56397 20.096H8.49996C8.89779 20.096 9.27932 19.938 9.56063 19.6567C9.84193 19.3754 9.99996 18.9939 9.99996 18.596V15.66C9.99996 15.2622 9.84193 14.8807 9.56063 14.5994C9.27932 14.3181 8.89779 14.16 8.49996 14.16H5.56397Z" fill="#11181C"/>
<path d="M18.436 21.096H15.5C14.837 21.096 14.2011 20.8326 13.7322 20.3638C13.2634 19.895 13 19.2591 13 18.596V15.66C13 14.997 13.2634 14.3611 13.7322 13.8923C14.2011 13.4234 14.837 13.16 15.5 13.16H18.434C18.7623 13.16 19.0874 13.2247 19.3907 13.3503C19.694 13.476 19.9696 13.6601 20.2018 13.8923C20.4339 14.1244 20.6181 14.4 20.7437 14.7033C20.8693 15.0066 20.934 15.3317 20.934 15.66V18.596C20.934 19.2587 20.6709 19.8943 20.2025 20.3631C19.7341 20.8319 19.0987 21.0955 18.436 21.096ZM15.5 14.16C15.1022 14.16 14.7206 14.3181 14.4393 14.5994C14.158 14.8807 14 15.2622 14 15.66V18.596C14 18.9939 14.158 19.3754 14.4393 19.6567C14.7206 19.938 15.1022 20.096 15.5 20.096H18.434C18.8318 20.096 19.2134 19.938 19.4947 19.6567C19.776 19.3754 19.934 18.9939 19.934 18.596V15.66C19.934 15.2622 19.776 14.8807 19.4947 14.5994C19.2134 14.3181 18.8318 14.16 18.434 14.16H15.5Z" fill="#11181C"/>
</svg>
