<svg width="24" height="25" viewBox="0 0 24 25" fill="none" xmlns="http://www.w3.org/2000/svg">
<path d="M18.436 21.097H5.56201C4.89897 21.097 4.26309 20.8336 3.79424 20.3648C3.3254 19.8959 3.06201 19.2601 3.06201 18.597V5.72302C3.06201 5.05998 3.3254 4.4241 3.79424 3.95526C4.26309 3.48641 4.89897 3.22302 5.56201 3.22302H18.436C19.0991 3.22302 19.7349 3.48641 20.2038 3.95526C20.6726 4.4241 20.936 5.05998 20.936 5.72302V18.597C20.936 19.2601 20.6726 19.8959 20.2038 20.3648C19.7349 20.8336 19.0991 21.097 18.436 21.097ZM5.56201 4.22302C5.16419 4.22302 4.78266 4.38106 4.50135 4.66236C4.22005 4.94367 4.06201 5.3252 4.06201 5.72302V18.597C4.06201 18.9948 4.22005 19.3764 4.50135 19.6577C4.78266 19.939 5.16419 20.097 5.56201 20.097H18.436C18.8338 20.097 19.2154 19.939 19.4967 19.6577C19.778 19.3764 19.936 18.9948 19.936 18.597V5.72302C19.936 5.3252 19.778 4.94367 19.4967 4.66236C19.2154 4.38106 18.8338 4.22302 18.436 4.22302H5.56201Z" fill="#11181C"/>
<path d="M6.54383 8.44299C6.41174 8.44071 6.2855 8.38813 6.19083 8.29599C6.09709 8.20223 6.04443 8.07508 6.04443 7.94249C6.04443 7.80991 6.09709 7.68276 6.19083 7.58899C6.28525 7.49661 6.41173 7.4443 6.54383 7.44299H7.54983C7.68184 7.44471 7.80817 7.49696 7.90283 7.58899C7.94941 7.63543 7.98637 7.6906 8.0116 7.75135C8.03682 7.81209 8.04981 7.87722 8.04983 7.94299C8.04983 8.0756 7.99715 8.20278 7.90338 8.29655C7.80961 8.39032 7.68244 8.44299 7.54983 8.44299H6.54383Z" fill="#11181C"/>
<path d="M6.54384 12.66C6.41197 12.6576 6.28589 12.6055 6.19084 12.514C6.14428 12.4676 6.10733 12.4124 6.08213 12.3517C6.05692 12.2909 6.04395 12.2258 6.04395 12.16C6.04395 12.0943 6.05692 12.0291 6.08213 11.9684C6.10733 11.9077 6.14428 11.8525 6.19084 11.806C6.2855 11.714 6.41183 11.6617 6.54384 11.66H7.54984C7.68175 11.6623 7.8079 11.7144 7.90284 11.806C7.9494 11.8525 7.98634 11.9077 8.01155 11.9684C8.03676 12.0291 8.04973 12.0943 8.04973 12.16C8.04973 12.2258 8.03676 12.2909 8.01155 12.3517C7.98634 12.4124 7.9494 12.4676 7.90284 12.514C7.80818 12.6061 7.68185 12.6583 7.54984 12.66H6.54384Z" fill="#11181C"/>
<path d="M6.54383 16.88C6.41174 16.8777 6.2855 16.8251 6.19083 16.733C6.09709 16.6392 6.04443 16.5121 6.04443 16.3795C6.04443 16.2469 6.09709 16.1198 6.19083 16.026C6.28548 15.934 6.41182 15.8817 6.54383 15.88H7.54983C7.68184 15.8817 7.80817 15.934 7.90283 16.026C7.94941 16.0724 7.98637 16.1276 8.0116 16.1884C8.03682 16.2491 8.04981 16.3142 8.04983 16.38C8.04983 16.5126 7.99715 16.6398 7.90338 16.7336C7.80961 16.8273 7.68244 16.88 7.54983 16.88H6.54383Z" fill="#11181C"/>
<path d="M10.5542 8.44104C10.4216 8.44104 10.2944 8.38836 10.2006 8.29459C10.1069 8.20082 10.0542 8.07365 10.0542 7.94104C10.0542 7.80843 10.1069 7.68125 10.2006 7.58749C10.2944 7.49372 10.4216 7.44104 10.5542 7.44104H17.4542C17.5868 7.44104 17.714 7.49372 17.8078 7.58749C17.9015 7.68125 17.9542 7.80843 17.9542 7.94104C17.9542 8.07365 17.9015 8.20082 17.8078 8.29459C17.714 8.38836 17.5868 8.44104 17.4542 8.44104H10.5542Z" fill="#11181C"/>
<path d="M10.5542 12.66C10.4216 12.66 10.2944 12.6074 10.2006 12.5136C10.1069 12.4198 10.0542 12.2926 10.0542 12.16C10.0542 12.0274 10.1069 11.9002 10.2006 11.8065C10.2944 11.7127 10.4216 11.66 10.5542 11.66H17.4542C17.5868 11.66 17.714 11.7127 17.8078 11.8065C17.9015 11.9002 17.9542 12.0274 17.9542 12.16C17.9542 12.2926 17.9015 12.4198 17.8078 12.5136C17.714 12.6074 17.5868 12.66 17.4542 12.66H10.5542Z" fill="#11181C"/>
<path d="M10.5542 16.8781C10.4216 16.8781 10.2944 16.8254 10.2006 16.7316C10.1069 16.6378 10.0542 16.5107 10.0542 16.3781C10.0542 16.2454 10.1069 16.1183 10.2006 16.0245C10.2944 15.9307 10.4216 15.8781 10.5542 15.8781H17.4542C17.5868 15.8781 17.714 15.9307 17.8078 16.0245C17.9015 16.1183 17.9542 16.2454 17.9542 16.3781C17.9542 16.5107 17.9015 16.6378 17.8078 16.7316C17.714 16.8254 17.5868 16.8781 17.4542 16.8781H10.5542Z" fill="#11181C"/>
</svg>
